<?xml version="1.0" encoding="UTF-8"?>
<svg id="a" data-name="Layer 1" xmlns="http://www.w3.org/2000/svg" viewBox="0 0 178.4 69.3">
  <defs>
    <style>
      .b {
        fill: #fff;
      }

      .c {
        fill: #f9a31b;
      }
    </style>
  </defs>
  <path class="b" d="M83.62,40.78c0,3.22-1.1,5.93-3.31,8.14-2.21,2.21-4.92,3.31-8.14,3.31s-5.9-1.11-8.12-3.33c-2.22-2.22-3.33-4.93-3.33-8.12v-11.41h5.77v11.41c0,1.57.55,2.91,1.65,4.02,1.1,1.11,2.44,1.67,4.01,1.67s2.92-.55,4.03-1.67c1.12-1.11,1.67-2.45,1.67-4.02v-11.41h5.77v11.41Z"/>
  <path class="b" d="M95.68,24.45c0,.97-.33,1.79-.98,2.46-.66.67-1.47,1-2.44,1s-1.79-.33-2.46-1c-.67-.67-1.01-1.49-1.01-2.46s.33-1.78,1.01-2.44c.67-.66,1.49-.98,2.46-.98s1.75.34,2.41,1c.67.67,1.01,1.47,1.01,2.42ZM95.17,51.55h-5.77v-22.18h5.77v22.18Z"/>
  <path class="b" d="M106.72,51.55h-5.77V17.74h5.77v33.81Z"/>
  <path class="b" d="M133.31,22.74h-8.72v28.81h-5.77v-28.81h-8.68v-5h23.17v5Z"/>
  <path class="b" d="M153.42,40.74c0,.57-.04,1.14-.13,1.7h-16.71c.37,1.2,1.05,2.16,2.05,2.89s2.12,1.09,3.38,1.09c1.74,0,3.18-.67,4.32-2.01l3.51,4.66c-2.19,2.08-4.8,3.12-7.82,3.12-3.22,0-5.93-1.1-8.14-3.3-2.21-2.21-3.31-4.91-3.31-8.13s1.11-5.88,3.33-8.09,4.93-3.31,8.12-3.31,5.89,1.1,8.1,3.3c2.21,2.2,3.31,4.89,3.31,8.07ZM146.97,38.13c-1.05-1.99-2.71-2.99-4.96-2.99s-3.95,1-5,2.99h9.96Z"/>
  <path class="b" d="M178.4,51.55h-5.77v-2.87c-.03-1.59-.58-2.93-1.66-4.02-1.07-1.08-2.41-1.62-4.01-1.62h-3.65v8.51h-5.77V17.74h5.77v19.53h3.65c1.6,0,2.94-.55,4.01-1.65,1.07-1.1,1.62-2.44,1.66-4.04v-2.22h5.77v2.22c0,3.42-1.28,6.27-3.85,8.55,2.57,2.28,3.85,5.13,3.85,8.55v2.87Z"/>
  <path class="b" d="M24.89,57.47s-.06,0-.09,0c-6.79-.91-12.59-3.92-17.23-8.95C2.55,43.07,0,36.47,0,28.9c0-8.04,2.83-14.94,8.4-20.51C13.97,2.82,20.88,0,28.93,0s14.95,2.82,20.49,8.39c5.55,5.57,8.36,12.47,8.36,20.51,0,6.57-2.02,12.5-5.99,17.64-3.59,4.64-8.24,7.91-13.81,9.72-.07.02-.14.03-.21.03-.37,0-.67-.3-.67-.67v-8.38c0-.26.15-.49.39-.61.76-.36,1.49-.77,2.16-1.2,1.01-.65,1.96-1.4,2.83-2.22.69-.66,1.35-1.38,1.96-2.15.3-.39.6-.79.87-1.2,2.23-3.31,3.37-7,3.37-10.96,0-5.48-1.93-10.2-5.73-14.03-3.81-3.82-8.52-5.76-14.02-5.76-4.66,0-8.83,1.44-12.39,4.27-3.25,2.59-5.48,5.92-6.62,9.89h0s-.09.34-.09.34c-.02.07-.04.14-.05.21-.01.05-.02.09-.03.14l-.04.14c-.03.1-.05.21-.08.31l-.1.43h0c-.28,1.34-.42,2.69-.42,4.02,0,2.16.35,4.3,1.05,6.35l.12.34h.02c1.15,3.28,3.07,6.1,5.73,8.36,2.61,2.22,5.65,3.68,9.02,4.32.3.06.53.33.53.65v7.92c0,.37-.3.67-.68.67Z"/>
  <path class="c" d="M43.41,24.5H11.14c-.49,0-.91.35-1,.84-.22,1.14-.34,2.32-.34,3.53,0,1.61.2,3.17.58,4.66.12.46.52.79.99.79h5.5c2.66,0,4.93.93,6.79,2.8,1.86,1.86,2.8,4.13,2.8,6.79v2.91h0v12.51h0v8.96c0,.77.83,1.27,1.51.89,2.59-1.42,5.18-2.84,7.77-4.26.33-.18.53-.52.53-.89v-6.88s0,0,0,0v-10.33s0,0,0,0h0v-2.91c0-.89-.05-1.76-.15-2.6-.24-1.97-.75-3.82-1.53-5.54-.31-.68.16-1.45.91-1.45h3.45c.36,0,.7-.19.88-.51l4.47-7.77c.39-.68-.1-1.53-.88-1.53"/>
</svg>